name Run_400 01_newCOP3_v24.mot
datacolumns 19
datarows 10
range 1.47500000 1.48437500
endheader
                time	   R_ground_force_vx	   R_ground_force_vy	   R_ground_force_vz	   R_ground_force_px	   R_ground_force_py	   R_ground_force_pz	   L_ground_force_vx	   L_ground_force_vy	   L_ground_force_vz	   L_ground_force_px	   L_ground_force_py	   L_ground_force_pz	   R_ground_torque_x	   R_ground_torque_y	   R_ground_torque_z	   L_ground_torque_x	   L_ground_torque_y	   L_ground_torque_z	
          1.47500000	        218.45777900	       1542.14965800	         34.34847300	          0.91322200	          0.00000000	         -0.32051000	          0.00000000	          0.00000000	          0.00000000	          0.00000000	          0.00000000	          0.00000000	          0.00000000	         -2.51662500	          0.00000000	          0.00000000	          0.00000000	          0.00000000	
          1.47604200	        223.76567100	       1523.33105500	         34.44759800	          0.90966100	          0.00000000	         -0.32054300	          0.00000000	          0.00000000	          0.00000000	          0.00000000	          0.00000000	          0.00000000	          0.00000000	         -2.56077000	          0.00000000	          0.00000000	          0.00000000	          0.00000000	
          1.47708300	        228.89415000	       1504.02563500	         34.56846200	          0.90609900	          0.00000000	         -0.32057200	          0.00000000	          0.00000000	          0.00000000	          0.00000000	          0.00000000	          0.00000000	          0.00000000	         -2.60994000	          0.00000000	          0.00000000	          0.00000000	          0.00000000	
          1.47812500	        233.83247400	       1484.23754900	         34.70922100	          0.90253600	          0.00000000	         -0.32059800	          0.00000000	          0.00000000	          0.00000000	          0.00000000	          0.00000000	          0.00000000	          0.00000000	         -2.66358800	          0.00000000	          0.00000000	          0.00000000	          0.00000000	
          1.47916700	        238.56976300	       1463.97033700	         34.86737100	          0.89897200	          0.00000000	         -0.32061900	          0.00000000	          0.00000000	          0.00000000	          0.00000000	          0.00000000	          0.00000000	          0.00000000	         -2.72114200	          0.00000000	          0.00000000	          0.00000000	          0.00000000	
          1.48020800	        243.09549000	       1443.22741700	         35.03976100	          0.89540700	          0.00000000	         -0.32063600	          0.00000000	          0.00000000	          0.00000000	          0.00000000	          0.00000000	          0.00000000	          0.00000000	         -2.78201500	          0.00000000	          0.00000000	          0.00000000	          0.00000000	
          1.48125000	        247.39962800	       1422.01269500	         35.22264500	          0.89184000	          0.00000000	         -0.32065000	          0.00000000	          0.00000000	          0.00000000	          0.00000000	          0.00000000	          0.00000000	          0.00000000	         -2.84560600	          0.00000000	          0.00000000	          0.00000000	          0.00000000	
          1.48229200	        251.47290000	       1400.33068800	         35.41170900	          0.88827000	          0.00000000	         -0.32066000	          0.00000000	          0.00000000	          0.00000000	          0.00000000	          0.00000000	          0.00000000	          0.00000000	         -2.91130400	          0.00000000	          0.00000000	          0.00000000	          0.00000000	
          1.48333300	        255.30685400	       1378.18689000	         35.60214600	          0.88469700	          0.00000000	         -0.32066700	          0.00000000	          0.00000000	          0.00000000	          0.00000000	          0.00000000	          0.00000000	          0.00000000	         -2.97849000	          0.00000000	          0.00000000	          0.00000000	          0.00000000	
          1.48437500	        258.89376800	       1355.58837900	         35.78875700	          0.88112000	          0.00000000	         -0.32067100	          0.00000000	          0.00000000	          0.00000000	          0.00000000	          0.00000000	          0.00000000	          0.00000000	         -3.04654600	          0.00000000	          0.00000000	          0.00000000	          0.00000000	
